<svg xmlns="http://www.w3.org/2000/svg" viewBox="0 0 240 240" width="240" height="240"
     fill="none" stroke="#2e3440" stroke-width="2.6" stroke-linecap="round" stroke-linejoin="round">
  <!-- line-art cicada, top view -->

  <!-- left forewing -->
  <path d="M108 82 C 70 78, 34 102, 24 150 C 22 168, 40 178, 72 169 C 94 161, 104 132, 111 106 Z"/>
  <path d="M88 98 C 76 120, 70 142, 80 162" opacity="0.8"/>
  <path d="M62 110 C 50 128, 46 146, 58 164" opacity="0.8"/>

  <!-- right forewing -->
  <path d="M132 82 C 170 78, 206 102, 216 150 C 218 168, 200 178, 168 169 C 146 161, 136 132, 129 106 Z"/>
  <path d="M152 98 C 164 120, 170 142, 160 162" opacity="0.8"/>
  <path d="M178 110 C 190 128, 194 146, 182 164" opacity="0.8"/>

  <!-- legs -->
  <path d="M105 98 C 90 102, 82 110, 77 120"/>
  <path d="M107 114 C 92 120, 84 130, 80 142"/>
  <path d="M111 132 C 99 140, 93 152, 93 164"/>
  <path d="M135 98 C 150 102, 158 110, 163 120"/>
  <path d="M133 114 C 148 120, 156 130, 160 142"/>
  <path d="M129 132 C 141 140, 147 152, 147 164"/>

  <!-- body: head + thorax + segmented abdomen -->
  <path d="M120 46 C 112 46, 104 52, 103 66 C 102 80, 98 92, 104 116
           C 108 150, 112 172, 120 188 C 128 172, 132 150, 136 116
           C 142 92, 138 80, 137 66 C 136 52, 128 46, 120 46 Z"/>
  <!-- thorax line -->
  <path d="M106 80 C 114 86, 126 86, 134 80"/>
  <!-- abdomen segments -->
  <path d="M106 104 C 114 110, 126 110, 134 104"/>
  <path d="M108 122 C 115 127, 125 127, 132 122"/>
  <path d="M110 140 C 116 144, 124 144, 130 140"/>
  <path d="M113 158 C 117 161, 123 161, 127 158"/>

  <!-- eyes -->
  <circle cx="101" cy="60" r="6.5"/>
  <circle cx="139" cy="60" r="6.5"/>

  <!-- antennae -->
  <path d="M113 48 C 109 40, 104 36, 98 35"/>
  <path d="M127 48 C 131 40, 136 36, 142 35"/>
</svg>
